<svg xmlns="http://www.w3.org/2000/svg" viewBox="0 0 1280 420" role="img" aria-labelledby="title desc">
  <title id="title">chatcommons — community protocol</title>
  <desc id="desc">TT1nKer system archive cover for chatcommons.</desc>
  <rect width="1280" height="420" fill="#0B0B0D"/>
  <path d="M0 1H1280M0 419H1280M44 0V420M1236 0V420" stroke="#303036" stroke-width="1"/>
  <path d="M44 78H1236" stroke="#303036" stroke-width="1"/>
  <rect x="44" y="0" width="7" height="78" fill="#2948E8"/>
  <g font-family="ui-monospace, SFMono-Regular, Menlo, Consolas, monospace" font-size="12" font-weight="700" letter-spacing="2.4">
    <text x="72" y="47" fill="#F1EFE7">[ 01 / SYSTEM ARCHIVE ]</text>
    <text x="1208" y="47" fill="#85858D" text-anchor="end">TT1NKER.NET</text>
  </g>
  <g font-family="Arial, Helvetica, sans-serif">
    <text x="72" y="210" fill="#F1EFE7" font-size="96" font-weight="800" letter-spacing="-4">chatcommons</text>
    <text x="75" y="256" fill="#929299" font-size="18" font-weight="500" letter-spacing=".5">COMMUNITY PROTOCOL</text>
  </g>
  <g font-family="ui-monospace, SFMono-Regular, Menlo, Consolas, monospace" font-size="11" font-weight="700" letter-spacing="2">
    <text x="74" y="355" fill="#85858D">STATE</text>
    <text x="132" y="355" fill="#2948E8">FRIENDS ALPHA</text>
    <text x="74" y="384" fill="#85858D">OWNER</text>
    <text x="132" y="384" fill="#F1EFE7">TT1NKER</text>
  </g>
  
      <g stroke="#2948E8" stroke-width="2" fill="none" opacity=".82">
        <path d="M820 180L955 135L1055 240L900 285L820 180M955 135L900 285"/>
      </g>
      
        <g transform="translate(820 180)">
          <circle r="31" fill="none" stroke="#F1EFE7" stroke-width="1.5"/>
          <circle cx="-12" cy="-5" r="4" fill="#F1EFE7"/><circle cx="9" cy="-12" r="3" fill="#F1EFE7"/><circle cx="14" cy="9" r="5" fill="#F1EFE7"/><circle cx="-8" cy="15" r="3" fill="#F1EFE7"/>
        </g>
        <g transform="translate(955 135)">
          <circle r="33" fill="none" stroke="#2948E8" stroke-width="1.5"/>
          <circle cx="-12" cy="-5" r="4" fill="#2948E8"/><circle cx="9" cy="-12" r="3" fill="#2948E8"/><circle cx="14" cy="9" r="5" fill="#2948E8"/><circle cx="-8" cy="15" r="3" fill="#2948E8"/>
        </g>
        <g transform="translate(1055 240)">
          <circle r="35" fill="none" stroke="#2948E8" stroke-width="1.5"/>
          <circle cx="-12" cy="-5" r="4" fill="#2948E8"/><circle cx="9" cy="-12" r="3" fill="#2948E8"/><circle cx="14" cy="9" r="5" fill="#2948E8"/><circle cx="-8" cy="15" r="3" fill="#2948E8"/>
        </g>
        <g transform="translate(900 285)">
          <circle r="37" fill="none" stroke="#2948E8" stroke-width="1.5"/>
          <circle cx="-12" cy="-5" r="4" fill="#2948E8"/><circle cx="9" cy="-12" r="3" fill="#2948E8"/><circle cx="14" cy="9" r="5" fill="#2948E8"/><circle cx="-8" cy="15" r="3" fill="#2948E8"/>
        </g>
</svg>